<svg width="12" height="12" viewBox="0 0 12 12" fill="none" xmlns="http://www.w3.org/2000/svg">
<path d="M5.55328 5.5506L0.162656 3.24691C0.0854297 3.21389 0 3.27145 0 3.35652V9.51527C0 9.67089 0.0933516 9.81086 0.235734 9.86864L5.46429 11.9914C5.54126 12.0226 5.625 11.9651 5.625 11.8809V5.66022C5.625 5.61236 5.59674 5.56918 5.55328 5.5506Z" fill="white"/>
<path d="M6.04546 4.89615L11.256 2.66943C11.3496 2.62941 11.3521 2.49563 11.26 2.45203L6.15857 0.0357135C6.05805 -0.0118867 5.94194 -0.0118867 5.84141 0.0357135L0.739938 2.45203C0.647852 2.49563 0.65036 2.62941 0.744017 2.66943L5.95452 4.89615C5.98359 4.90859 6.0164 4.90859 6.04546 4.89615Z" fill="white"/>
<path d="M6.375 5.66022V11.8809C6.375 11.9651 6.45874 12.0226 6.53571 11.9914L11.7643 9.86864C11.9066 9.81084 12 9.67089 12 9.51527V3.35652C12 3.27145 11.9146 3.21389 11.8373 3.24691L6.44672 5.5506C6.40327 5.56918 6.375 5.61236 6.375 5.66022Z" fill="white"/>
</svg>
