<svg width="13" height="16" viewBox="0 0 13 16" fill="none" xmlns="http://www.w3.org/2000/svg">
<path d="M8.6448 10.3087C7.94596 11.0075 8.03332 12.4177 8.03332 12.4177H4.48922C4.48922 12.4177 4.5641 11.0075 3.87774 10.3087C3.11651 9.63479 2.62982 8.66142 2.62982 7.57573C2.62982 5.57905 4.25212 3.95676 6.24879 3.95676C8.24546 3.95676 9.86776 5.57905 9.86776 7.57573C9.86776 8.66142 9.39355 9.63479 8.6448 10.3087Z" fill="white"/>
<path d="M8.13319 13.5284C8.13319 13.7156 7.98344 13.8653 7.79625 13.8653H4.71389C4.5267 13.8653 4.37695 13.7156 4.37695 13.5284C4.37695 13.3412 4.5267 13.1915 4.71389 13.1915H7.78378C7.97096 13.1915 8.13319 13.3412 8.13319 13.5284Z" fill="#FF9249"/>
<path d="M7.6714 14.926C7.6714 15.1132 7.52165 15.2629 7.33446 15.2629H5.17556C4.98837 15.2629 4.83862 15.1132 4.83862 14.926C4.83862 14.7388 4.98837 14.589 5.17556 14.589H7.33446C7.52165 14.589 7.6714 14.7388 7.6714 14.926Z" fill="#FF9249"/>
<path d="M8.83203 10.4334C9.64318 9.6971 10.1049 8.66132 10.1049 7.57563C10.1049 5.45417 8.3703 3.71956 6.24883 3.71956C4.12737 3.71956 2.39276 5.45417 2.39276 7.57563C2.39276 8.68628 2.87945 9.74701 3.70308 10.4708C4.31456 11.0823 4.25216 12.3801 4.25216 12.3926C4.25216 12.455 4.27712 12.5174 4.31456 12.5673C4.36448 12.6172 4.42687 12.6422 4.48927 12.6422H8.02088C8.08328 12.6422 8.14567 12.6172 8.19559 12.5673C8.24551 12.5174 8.25799 12.455 8.25799 12.3926C8.25799 12.3801 8.19559 11.0823 8.80707 10.4708C8.81955 10.4583 8.83203 10.4458 8.83203 10.4334ZM8.48261 10.1214C8.45765 10.1339 8.44517 10.1588 8.43269 10.1838C7.88361 10.7703 7.79626 11.7312 7.78378 12.1805H4.72637C4.71389 11.7187 4.61406 10.7204 4.02754 10.1339C3.29126 9.48495 2.86697 8.56149 2.86697 7.58811C2.86697 5.71623 4.38943 4.20625 6.24883 4.20625C8.12071 4.20625 9.6307 5.72871 9.6307 7.58811C9.6307 8.54901 9.21888 9.48495 8.48261 10.1214Z" fill="white"/>
<path d="M6.24888 4.71791C6.12409 4.71791 6.01178 4.81774 6.01178 4.95502C6.01178 5.07981 6.11161 5.19212 6.24888 5.19212C7.64655 5.19212 8.78216 6.32773 8.78216 7.7254C8.78216 7.85019 8.882 7.9625 9.01927 7.9625C9.14406 7.9625 9.25637 7.86267 9.25637 7.7254C9.25637 6.06566 7.90862 4.71791 6.24888 4.71791Z" fill="white"/>
<path d="M8.37034 13.5283C8.37034 13.2039 8.10828 12.9543 7.7963 12.9543H4.71394C4.38948 12.9543 4.13989 13.2163 4.13989 13.5283C4.13989 13.8528 4.40196 14.1024 4.71394 14.1024H7.78382C8.10828 14.1024 8.37034 13.8528 8.37034 13.5283ZM7.78382 13.6281H4.71394C4.65154 13.6281 4.6141 13.5782 4.6141 13.5283C4.6141 13.4659 4.66402 13.4285 4.71394 13.4285H7.78382C7.84622 13.4285 7.88365 13.4784 7.88365 13.5283C7.89613 13.5907 7.84622 13.6281 7.78382 13.6281Z" fill="white"/>
<path d="M7.33451 14.3518H5.17561C4.85115 14.3518 4.60156 14.6139 4.60156 14.9258C4.60156 15.2503 4.86363 15.4999 5.17561 15.4999H7.33451C7.65897 15.4999 7.90855 15.2378 7.90855 14.9258C7.90855 14.6139 7.64649 14.3518 7.33451 14.3518ZM7.33451 15.0257H5.17561C5.11321 15.0257 5.07577 14.9758 5.07577 14.9258C5.07577 14.8634 5.12569 14.826 5.17561 14.826H7.33451C7.3969 14.826 7.43434 14.8759 7.43434 14.9258C7.43434 14.9882 7.3969 15.0257 7.33451 15.0257Z" fill="white"/>
<path d="M6.48599 2.33444V0.737105C6.48599 0.612313 6.38616 0.5 6.24888 0.5C6.12409 0.5 6.01178 0.599834 6.01178 0.737105V2.34692C6.01178 2.47171 6.11161 2.58403 6.24888 2.58403C6.38616 2.57155 6.48599 2.47171 6.48599 2.33444Z" fill="white"/>
<path d="M10.1798 1.68549C10.0674 1.61062 9.93018 1.64806 9.8553 1.74789L8.96928 3.08317C8.8944 3.19548 8.93184 3.33275 9.03167 3.40762C9.06911 3.43258 9.11903 3.44506 9.15647 3.44506C9.23134 3.44506 9.30622 3.40762 9.35613 3.34523L10.2422 2.00995C10.317 1.91012 10.2796 1.76037 10.1798 1.68549Z" fill="white"/>
<path d="M3.42857 3.39518C3.46601 3.39518 3.51592 3.3827 3.55336 3.35774C3.66568 3.28286 3.69063 3.14559 3.62824 3.03328L2.76717 1.68553C2.6923 1.57321 2.55503 1.54826 2.44271 1.61065C2.3304 1.68553 2.30544 1.8228 2.36784 1.93511L3.2289 3.28286C3.27882 3.35774 3.3537 3.39518 3.42857 3.39518Z" fill="white"/>
<path d="M0.121527 4.5183L1.53168 5.27953C1.56911 5.30448 1.60655 5.30448 1.64399 5.30448C1.73134 5.30448 1.80622 5.25457 1.85614 5.17969C1.91853 5.06738 1.88109 4.91763 1.7563 4.85523L0.346152 4.094C0.23384 4.03161 0.0840893 4.06904 0.0216933 4.19384C-0.0282235 4.31863 0.009214 4.4559 0.121527 4.5183Z" fill="white"/>
<path d="M10.8536 5.31695C10.8911 5.31695 10.9285 5.30447 10.966 5.29199L12.3761 4.53076C12.4884 4.46836 12.5383 4.33109 12.4759 4.2063C12.4135 4.09399 12.2763 4.04407 12.1515 4.10647L10.7413 4.8677C10.629 4.93009 10.5791 5.06736 10.6415 5.19216C10.6789 5.26703 10.7663 5.31695 10.8536 5.31695Z" fill="white"/>
</svg>
