<svg width="12" height="12" viewBox="0 0 12 12" fill="none" xmlns="http://www.w3.org/2000/svg">
<path d="M11.8971 3.08608L8.91391 0.102973C8.77663 -0.0343243 8.55402 -0.0343243 8.41672 0.102973L6.87825 1.64142C6.74095 1.77871 6.74095 2.0013 6.87825 2.1386L7.03055 2.29089L3.00673 4.30278C2.92972 4.34128 2.8695 4.40672 2.83753 4.48667L0.0262033 11.5148C0.0257814 11.5159 0.025383 11.5169 0.0249845 11.5179C0.0213751 11.5269 0.0182578 11.536 0.0154453 11.5452C0.00935144 11.565 0.00454666 11.5881 0.00213256 11.6101C-0.00820356 11.7046 0.0195001 11.7948 0.0750948 11.8655C0.0771573 11.8681 0.0791964 11.8707 0.0813527 11.8733C0.165987 11.9749 0.295903 12.0171 0.41771 11.9937C0.42671 11.992 0.435593 11.9897 0.444476 11.9873C0.446328 11.9867 0.448226 11.9864 0.450078 11.9859C0.461938 11.9824 0.473633 11.9783 0.485141 11.9736L7.51335 9.16237C7.5933 9.1304 7.65874 9.07019 7.69725 8.99317L9.70916 4.96941L9.86146 5.12171C9.93011 5.19036 10.0201 5.22469 10.11 5.22469C10.2 5.22469 10.29 5.19038 10.3586 5.12171L11.8971 3.58327C12.0344 3.44599 12.0344 3.22341 11.8971 3.08608ZM7.1281 8.55918L1.81112 10.686L4.81891 7.67821C4.9566 7.74423 5.11073 7.78129 5.27334 7.78129C5.85491 7.78129 6.32805 7.30815 6.32805 6.7266C6.32805 6.14504 5.85491 5.67191 5.27334 5.67191C4.69178 5.67191 4.21864 6.14504 4.21864 6.7266C4.21864 6.88921 4.25569 7.04335 4.32172 7.18103L1.31393 10.1888L3.44071 4.87186L7.55463 2.81496L9.18504 4.44535L7.1281 8.55918ZM4.92177 6.7266C4.92177 6.53274 5.07949 6.37503 5.27334 6.37503C5.4672 6.37503 5.62491 6.53274 5.62491 6.7266C5.62491 6.92045 5.4672 7.07816 5.27334 7.07816C5.07949 7.07816 4.92177 6.92045 4.92177 6.7266ZM10.11 4.37592L9.85691 4.12282C9.8567 4.12261 9.85649 4.1224 9.85628 4.12219L7.87781 2.14375C7.87755 2.1435 7.8773 2.14324 7.87704 2.14298L7.62405 1.89002L8.6653 0.84878L11.1513 3.33471L10.11 4.37592Z" fill="#7C788A"/>
</svg>
